
<svg id="jvk6ZtAYXG" viewBox="0 0 100 100"><defs id="SvgjsDefs1137"></defs><g id="SvgjsG1138" featurekey="JKiIdh-0" transform="matrix(1.1764707994296444,0,0,1.1764707994296444,-8.823840659438309,-9.38045838397906)" fill="currentColor">
  <g xmlns="http://www.w3.org/2000/svg"><path fill-rule="evenodd" clip-rule="evenodd" d="M18.191,64.081c-0.457-2.148-2.669-3.127-4.646-3.37   c-1.792-0.22-3.938,0.386-5.043,1.896c-0.294,0.4-0.465,0.861-0.537,1.351c-0.271,1.859,0.899,4.141,2.249,5.207   c1.526,1.206,3.472,1.123,5.199,0.375C17.438,68.661,18.649,66.237,18.191,64.081z"></path><path fill-rule="evenodd" clip-rule="evenodd" d="M32.656,75.482c-1,0.502-1.813,2.121-2.089,3.056   c-0.498,1.688,0.226,4.295,2.042,4.942c1.974,0.704,3.031-0.823,3.191-2.625c0.141-1.588-0.346-3.84-1.5-5.017   C33.734,75.262,33.17,75.225,32.656,75.482z"></path><path fill-rule="evenodd" clip-rule="evenodd" d="M72.916,56.606c1.375-0.135,2.863-0.534,4.143-1.048   c0.873-0.351,1.708-0.831,2.466-1.416c3.335-2.573,4.927-7.45,1.92-10.949c-1.118-1.301-3.084-2.275-4.751-2.538   c-3.254-0.511-6.531,0.706-9.802,0.17c-1.361-0.223-2.903-0.758-3.566-2.074c-0.858-1.703,0.171-3.95,0.642-5.63   c1.216-4.34,0.006-8.263-3.918-10.631c-2.764-1.668-6.762-1.708-9.852-1.127c-2.273,0.426-3.803,1.764-4.997,3.679   c-0.989,1.584-1.712,4.344-3.919,4.565c-1.573,0.158-2.906-0.97-4.213-1.66c-1.454-0.767-3.096-1.057-4.691-0.509   c-3.371,1.158-2.977,4.674-2.995,7.552c-0.009,1.428-0.147,3.465-2,3.541c-1.917,0.079-3.642-1.746-5.051-2.806   c-2.071-1.558-4.613-1.794-7.099-1.063c-3.085,0.907-4.437,4.168-4.186,7.175c0.281,3.363,2.483,5.812,4.962,7.88   c1.973,1.646,4.456,3.026,5.993,5.133c1.302,1.786,0.898,4.247,0.786,6.308c-0.099,1.822,0.01,3.771,0.805,5.445   c0.628,1.322,1.93,2.559,3.177,3.282c5.294,3.072,13.469,2.817,18.503-0.613c1.917-1.308,3.862-2.942,6.286-1.905   c1.649,0.705,2.846,2.075,4.186,3.213c1.41,1.198,3.048,2.022,4.899,2.27c2.035,0.272,4.332-0.166,5.97-1.444   c1.659-1.295,2.284-3.519,1.569-5.493c-0.722-1.991-3.235-3.15-3.257-5.479C64.891,56.821,70.497,56.845,72.916,56.606z"></path><path fill-rule="evenodd" clip-rule="evenodd" d="M8.437,53.877c1.257,0.604,4.583,0.579,3.375-1.709   c-0.01-0.019-0.02-0.036-0.03-0.055c-0.517-0.923-1.599-1.69-2.668-1.439c-0.88,0.207-1.69,0.948-1.608,1.928   C7.557,53.208,7.907,53.622,8.437,53.877z"></path><path fill-rule="evenodd" clip-rule="evenodd" d="M77.506,33.747c2.459-1.808,0.601-4.836-2.078-4.472   c-2.096,0.285-3.688,2.148-2.08,4.042C74.613,34.807,76.344,34.603,77.506,33.747z"></path><path fill-rule="evenodd" clip-rule="evenodd" d="M37.056,21.654c0.011-0.002,0.021-0.004,0.032-0.006   c1.839-0.374,1.005-3.11-0.419-3.422C34.617,17.777,34.407,22.146,37.056,21.654z"></path><path fill-rule="evenodd" clip-rule="evenodd" d="M24.403,75.72c-1.313-0.035-2.741,0.476-3.647,1.126   c-2.852,2.046-4.66,5.79-4.825,9.263c-0.115,2.427,1.228,5.193,3.758,5.809c3.235,0.787,5.712-2.845,6.743-5.381   c1.182-2.907,2.654-6.988,0.364-9.775C26.207,76.044,25.333,75.745,24.403,75.72z"></path><path fill-rule="evenodd" clip-rule="evenodd" d="M48.22,73.479c-0.109-0.063-0.22-0.114-0.329-0.151   c-1.237-0.423-2.372,0.819-2.551,2.034c-0.267,1.802,2.384,3.751,3.688,1.981C49.795,76.302,49.289,74.103,48.22,73.479z"></path><path fill-rule="evenodd" clip-rule="evenodd" d="M92.184,66.836c-0.476-1.306-1.634-2.184-2.818-2.816   c-3.161-1.691-7.611-2.771-11.164-1.882c-2.091,0.522-3.814,2.128-2.901,4.334c1.331,3.217,5.354,5.739,8.504,6.854   c2.525,0.894,5.547,0.597,7.494-1.391c0.533-0.545,0.883-1.253,1.061-2.013C92.598,68.901,92.529,67.784,92.184,66.836z"></path><path fill-rule="evenodd" clip-rule="evenodd" d="M26.675,23.142c1.938,1.319,4.115,0.608,4.753-1.677   c0.315-1.13,0.38-2.343,0.283-3.569c-0.162-2.063-0.78-4.163-1.427-5.97c-0.946-2.645-3.546-4.415-6.393-3.846   c-1.287,0.257-2.167,1.24-2.587,2.446c-0.858,2.455,0.06,5.042,1.195,7.238C23.539,19.771,24.769,21.844,26.675,23.142z"></path></g>
</svg>
